<svg width="64" height="64" viewBox="0 0 64 64" fill="none" xmlns="http://www.w3.org/2000/svg">
<path d="M26.4002 33.8143C26.5893 30.3813 28.2409 27.3571 30.7329 25.2131C33.1765 23.1073 36.4655 21.8202 40.0543 21.8202C43.6394 21.8202 46.9286 23.1073 49.3741 25.2131C51.864 27.3569 53.5158 30.3813 53.7067 33.8106C53.8956 37.3378 52.5026 40.6145 50.059 43.0434C47.5673 45.514 44.0229 47.0643 40.0543 47.0643C36.0856 47.0643 32.5344 45.514 30.0443 43.0434C27.5989 40.6143 26.2093 37.3376 26.4002 33.8143Z" fill="white"/>
<path d="M33.0501 34.1205C33.147 32.3591 33.9946 30.8072 35.2731 29.7072C36.527 28.6268 38.2145 27.9663 40.056 27.9663C41.8955 27.9663 43.5833 28.6268 44.838 29.7072C46.1157 30.8072 46.9631 32.3591 47.061 34.1188C47.1581 35.9285 46.4435 37.6099 45.1894 38.8561C43.911 40.1237 42.0924 40.9192 40.056 40.9192C38.0197 40.9192 36.1975 40.1237 34.9198 38.8561C33.6651 37.6099 32.9522 35.9285 33.0501 34.1205Z" fill="#265787"/>
<path d="M21.9272 37.7391C21.9394 38.4296 22.1557 39.7721 22.4805 40.8203C23.1628 43.0391 24.3202 45.0919 25.9308 46.9008C27.5836 48.7604 29.6187 50.254 31.9697 51.3143C34.4405 52.428 37.1177 52.9955 39.8985 52.9909C42.6748 52.987 45.3522 52.4083 47.823 51.2862C50.1738 50.2155 52.2071 48.7155 53.8572 46.8551C55.4668 45.0386 56.6224 42.9822 57.3067 40.7634C57.6506 39.6423 57.8679 38.5045 57.9551 37.3627C58.0403 36.2363 58.0044 35.1039 57.8478 33.9855C57.5415 31.7919 56.7957 29.7337 55.6474 27.8574C54.5972 26.1333 53.2436 24.6239 51.6338 23.3534L51.6375 23.3507L35.3936 10.6564C35.3788 10.6452 35.3668 10.6332 35.3511 10.6229C34.2855 9.79017 32.4932 9.79307 31.3211 10.6274C30.1361 11.4713 30.0004 12.8669 31.055 13.747L31.0506 13.7518L37.8258 19.3591L17.1755 19.3814H17.1479C15.441 19.3835 13.8004 20.5232 13.4754 21.9635C13.1416 23.4309 14.3011 24.6481 16.0758 24.6547L16.0729 24.6611L26.54 24.6405L7.86223 39.2317C7.83846 39.2495 7.81267 39.2681 7.79073 39.2859C6.02882 40.659 5.45926 42.9423 6.56893 44.3872C7.69526 45.8566 10.0901 45.8593 11.8703 44.3957L22.0639 35.905C22.0639 35.905 21.9152 37.0511 21.9272 37.7391ZM48.1212 41.5773C46.0209 43.7552 43.0802 44.99 39.8987 44.9966C36.7123 45.0022 33.7718 43.7784 31.6715 41.6044C30.6451 40.5449 29.8913 39.3258 29.4262 38.0273C28.9688 36.7495 28.7929 35.385 28.9109 34.0304C29.0218 32.6945 29.4126 31.4204 30.0362 30.2675C30.6488 29.1344 31.4926 28.1102 32.5346 27.244C34.576 25.5509 37.1754 24.6341 39.8938 24.6303C42.6153 24.6266 45.2126 25.535 47.2563 27.2227C48.2963 28.085 49.1393 29.1054 49.7519 30.2369C50.3836 31.3959 50.7686 32.6773 50.8819 33.9977C50.9981 35.3515 50.8215 36.7149 50.3645 37.9918C49.8985 39.2942 49.1474 40.5133 48.1212 41.5773Z" fill="#EA7600"/>
</svg>
