<svg width="64" height="64" viewBox="0 0 64 64" fill="none" xmlns="http://www.w3.org/2000/svg">
<path d="M11.2 53C9.77 53 8.54627 52.4864 7.5288 51.4591C6.51133 50.4319 6.00173 49.1955 6 47.75V16.25C6 14.8062 6.5096 13.5707 7.5288 12.5435C8.548 11.5162 9.77173 11.0017 11.2 11H26.8L32 16.25H52.8C54.23 16.25 55.4546 16.7645 56.4738 17.7935C57.493 18.8225 58.0017 20.058 58 21.5V47.75C58 49.1937 57.4913 50.4301 56.4738 51.4591C55.4563 52.4881 54.2317 53.0017 52.8 53H11.2ZM11.2 47.75H52.8V21.5H29.855L24.655 16.25H11.2V47.75Z" fill="white"/>
</svg>
