<svg width="72" height="72" viewBox="0 0 72 72" fill="none" xmlns="http://www.w3.org/2000/svg">
<g clip-path="url(#clip0_770_2)" filter="url(#filter0_d_770_2)">
<path d="M53.375 26.3C55.775 28.7 55.775 32.675 53.375 35.075L28.25 60.2C27.05 61.4 25.475 62 23.9 62C22.325 62 20.75 61.325 19.55 60.2C17.975 58.7 17.75 57.5 17.75 55.775V15.35C17.75 11.9 20.45 9.125 23.9 9.125C27.35 9.125 30.05 11.9 30.05 15.35V40.85L44.6 26.3C47.075 23.9 50.975 23.9 53.375 26.3ZM49.025 49.625C52.4 49.625 55.175 52.4 55.175 55.85C55.175 59.225 52.4 62 49.025 62C45.575 62 42.8 59.225 42.8 55.85C42.8 52.4 45.575 49.625 49.025 49.625Z" fill="white"/>
<path d="M53.375 26.3C55.775 28.7 55.775 32.675 53.375 35.075L28.25 60.2C27.05 61.4 25.475 62 23.9 62C22.325 62 20.75 61.325 19.55 60.2C17.975 58.7 17.75 57.5 17.75 55.775V15.35C17.75 11.9 20.45 9.125 23.9 9.125C27.35 9.125 30.05 11.9 30.05 15.35V40.85L44.6 26.3C47.075 23.9 50.975 23.9 53.375 26.3ZM49.025 49.625C52.4 49.625 55.175 52.4 55.175 55.85C55.175 59.225 52.4 62 49.025 62C45.575 62 42.8 59.225 42.8 55.85C42.8 52.4 45.575 49.625 49.025 49.625Z" fill="url(#paint0_linear_770_2)"/>
</g>
<defs>
<filter id="filter0_d_770_2" x="0" y="0" width="72" height="72" filterUnits="userSpaceOnUse" color-interpolation-filters="sRGB">
<feFlood flood-opacity="0" result="BackgroundImageFix"/>
<feColorMatrix in="SourceAlpha" type="matrix" values="0 0 0 0 0 0 0 0 0 0 0 0 0 0 0 0 0 0 127 0" result="hardAlpha"/>
<feOffset dy="4"/>
<feGaussianBlur stdDeviation="2"/>
<feComposite in2="hardAlpha" operator="out"/>
<feColorMatrix type="matrix" values="0 0 0 0 0 0 0 0 0 0 0 0 0 0 0 0 0 0 0.25 0"/>
<feBlend mode="normal" in2="BackgroundImageFix" result="effect1_dropShadow_770_2"/>
<feBlend mode="normal" in="SourceGraphic" in2="effect1_dropShadow_770_2" result="shape"/>
</filter>
<linearGradient id="paint0_linear_770_2" x1="43.5" y1="50" x2="55.5" y2="62" gradientUnits="userSpaceOnUse">
<stop stop-opacity="0"/>
<stop offset="0.124999" stop-color="#E87D0D"/>
</linearGradient>
<clipPath id="clip0_770_2">
<rect width="64" height="64" fill="white" transform="translate(4)"/>
</clipPath>
</defs>
</svg>
