<svg width="64" height="64" viewBox="0 0 64 64" fill="none" xmlns="http://www.w3.org/2000/svg">
<rect x="3" y="3" width="58" height="58" rx="15" fill="#F6F6F6"/>
<path d="M26.7 20.672C27.596 21.568 27.596 23.052 26.7 23.948L17.32 33.328C16.872 33.776 16.284 34 15.696 34C15.108 34 14.52 33.748 14.072 33.328C13.484 32.768 13.4 32.32 13.4 31.676V16.584C13.4 15.296 14.408 14.26 15.696 14.26C16.984 14.26 17.992 15.296 17.992 16.584V26.104L23.424 20.672C24.348 19.776 25.804 19.776 26.7 20.672ZM25.076 29.38C26.336 29.38 27.372 30.416 27.372 31.704C27.372 32.964 26.336 34 25.076 34C23.788 34 22.752 32.964 22.752 31.704C22.752 30.416 23.788 29.38 25.076 29.38Z" fill="url(#paint0_linear_458_2)"/>
<defs>
<linearGradient id="paint0_linear_458_2" x1="21" y1="30.5" x2="21.5" y2="31" gradientUnits="userSpaceOnUse">
<stop stop-color="#E87D0D"/>
<stop offset="1" stop-color="#265787"/>
</linearGradient>
</defs>
</svg>
