<svg width="64" height="64" viewBox="0 0 64 64" fill="none" xmlns="http://www.w3.org/2000/svg">
<path d="M47.7409 20.75L45.4765 18.1906C43.5565 16.2314 41.2462 14.6723 38.6863 13.608C36.1264 12.5437 33.3704 11.9966 30.5859 12C19.2208 12 10 20.9583 10 32C10 43.0417 19.2208 52 30.5859 52C34.8436 51.9997 38.9965 50.7175 42.4732 48.3297C45.9499 45.942 48.5795 42.5661 50 38.6667" stroke="white" stroke-width="4" stroke-miterlimit="10" stroke-linecap="round"/>
<path d="M55 14.8002V27.2051C55 27.6811 54.8109 28.1377 54.4743 28.4743C54.1376 28.8109 53.6811 29 53.205 29H40.7993C39.1995 29 38.3985 27.0671 39.5293 25.9363L51.9362 13.5303C53.067 12.3973 55 13.2005 55 14.8002Z" fill="white"/>
</svg>
