<svg width="64" height="64" viewBox="0 0 64 64" fill="none" xmlns="http://www.w3.org/2000/svg">
<path d="M53 34.7344C52.5022 38.5135 50.9805 42.0864 48.598 45.0699C46.2155 48.0534 43.0622 50.335 39.4762 51.67C35.8903 53.005 32.0069 53.343 28.2426 52.6478C24.4784 51.9525 20.9752 50.2503 18.1088 47.7236C15.2425 45.1969 13.1211 41.9411 11.9721 38.3054C10.8232 34.6696 10.69 30.7911 11.5869 27.0857C12.4838 23.3803 14.377 19.9879 17.0634 17.2723C19.7498 14.5567 23.128 12.6203 26.8358 11.6708C37.1143 9.04639 47.754 14.3136 51.6819 24.1291" stroke="black" stroke-width="5" stroke-linecap="round" stroke-linejoin="round"/>
<path d="M53 11V24H40" stroke="black" stroke-width="5" stroke-linecap="round" stroke-linejoin="round"/>
</svg>
