<svg width="64" height="64" viewBox="0 0 64 64" fill="none" xmlns="http://www.w3.org/2000/svg">
<path d="M12.6273 27.3832C12.2256 26.9894 12 26.4557 12 25.8991C12 25.3426 12.2256 24.8088 12.6273 24.4151L22.6371 14.6147C22.8362 14.4198 23.0725 14.2652 23.3325 14.1598C23.5926 14.0543 23.8714 14 24.1529 14C24.4344 14 24.7131 14.0543 24.9732 14.1598C25.2333 14.2652 25.4696 14.4198 25.6686 14.6147C25.8677 14.8096 26.0256 15.041 26.1333 15.2956C26.241 15.5502 26.2965 15.8232 26.2965 16.0988C26.2965 16.3744 26.241 16.6473 26.1333 16.9019C26.0256 17.1566 25.8677 17.3879 25.6686 17.5828L19.3224 23.7991H39.8797C40.0475 23.7991 40.2105 23.8168 40.3688 23.8523C43.6563 24.1641 46.6957 25.7013 48.858 28.1459C51.0204 30.5904 52.1402 33.7552 51.9859 36.9855C51.8316 40.2159 50.415 43.2645 48.0291 45.5008C45.6432 47.7371 42.4705 48.9899 39.1676 49H34.2942C33.7254 49 33.1798 48.7787 32.7775 48.3849C32.3753 47.9911 32.1493 47.4569 32.1493 46.8999C32.1493 46.3429 32.3753 45.8088 32.7775 45.4149C33.1798 45.0211 33.7254 44.7998 34.2942 44.7998H39.1676C40.2943 44.7998 41.41 44.5826 42.4509 44.1604C43.4919 43.7383 44.4377 43.1195 45.2344 42.3394C46.0311 41.5594 46.6631 40.6334 47.0943 39.6142C47.5255 38.595 47.7474 37.5027 47.7474 36.3995C47.7474 35.2964 47.5255 34.204 47.0943 33.1849C46.6631 32.1657 46.0311 31.2397 45.2344 30.4596C44.4377 29.6796 43.4919 29.0608 42.4509 28.6387C41.41 28.2165 40.2943 27.9992 39.1676 27.9992H19.3224L25.6686 34.2154C25.8677 34.4103 26.0256 34.6417 26.1333 34.8963C26.241 35.151 26.2965 35.4239 26.2965 35.6995C26.2965 35.9751 26.241 36.248 26.1333 36.5027C26.0256 36.7573 25.8677 36.9887 25.6686 37.1836C25.4696 37.3784 25.2333 37.533 24.9732 37.6385C24.7131 37.744 24.4344 37.7983 24.1529 37.7983C23.8714 37.7983 23.5926 37.744 23.3325 37.6385C23.0725 37.533 22.8362 37.3784 22.6371 37.1836L12.6273 27.3832Z" fill="white"/>
</svg>
