<svg width="64" height="64" viewBox="0 0 64 64" fill="none" xmlns="http://www.w3.org/2000/svg">
<path d="M43.75 56V43.2933C43.7493 42.7361 43.6396 42.1844 43.4271 41.6699C43.2146 41.1554 42.9035 40.6882 42.5116 40.2949C42.1198 39.9016 41.6548 39.59 41.1433 39.3778C40.6317 39.1657 40.0837 39.0573 39.5306 39.0587H25.4694C24.9163 39.0573 24.3683 39.1657 23.8567 39.3778C23.3452 39.59 22.8802 39.9016 22.4883 40.2949C22.0965 40.6882 21.7854 41.1554 21.5729 41.6699C21.3604 42.1844 21.2507 42.7361 21.25 43.2933V56M43.75 8.76003V15.0587C43.7493 15.6159 43.6396 16.1676 43.4271 16.6821C43.2146 17.1966 42.9035 17.6638 42.5116 18.0571C42.1198 18.4504 41.6548 18.7621 41.1433 18.9742C40.6317 19.1863 40.0837 19.2947 39.5306 19.2933H25.4694C24.9163 19.2947 24.3683 19.1863 23.8567 18.9742C23.3452 18.7621 22.8802 18.4504 22.4883 18.0571C22.0965 17.6638 21.7854 17.1966 21.5729 16.6821C21.3604 16.1676 21.2507 15.6159 21.25 15.0587V8.00003M43.75 8.76003C42.6522 8.25918 41.461 8.00008 40.2559 8.00003H21.25M43.75 8.76003C44.6606 9.17603 45.4997 9.75736 46.2224 10.48L52.5276 16.8133C53.3106 17.5982 53.932 18.531 54.3563 19.5584C54.7805 20.5857 54.9993 21.6873 55 22.8V47.5253C54.9993 48.64 54.7805 49.7437 54.356 50.7731C53.9315 51.8026 53.3097 52.7376 52.5261 53.5247C51.7426 54.3119 50.8127 54.9356 49.7896 55.3603C48.7665 55.7851 47.6704 56.0024 46.5638 56H18.4388C17.3323 56.0028 16.2361 55.7858 15.2129 55.3614C14.1897 54.937 13.2596 54.3135 12.4758 53.5266C11.692 52.7397 11.0699 51.8049 10.6451 50.7756C10.2202 49.7463 10.001 48.6427 10 47.528V16.4694C10.0014 15.3548 10.2208 14.2515 10.6458 13.2225C11.0708 12.1935 11.6929 11.259 12.4767 10.4724C13.2605 9.68585 14.1904 9.06261 15.2135 8.63838C16.2365 8.21414 17.3325 7.99722 18.4388 8.00003H21.25" stroke="black" stroke-width="4.5" stroke-linecap="round" stroke-linejoin="round"/>
</svg>
