<svg width="64" height="64" viewBox="0 0 64 64" fill="none" xmlns="http://www.w3.org/2000/svg">
<path d="M8 24.0787C8 17.4426 8 14.1234 10.1096 12.0629C12.2168 10 15.6128 10 22.4 10H41.6C48.3872 10 51.7832 10 53.8904 12.0629C56 14.1234 56 17.4402 56 24.0787V26.4251C56 33.0612 56 36.3804 53.8904 38.4409C51.7832 40.5038 48.3872 40.5038 41.6 40.5038H33.8V46.2722L46.9688 50.5666C47.1892 50.633 47.3943 50.7439 47.5718 50.8927C47.7492 51.0415 47.8955 51.2251 48.0019 51.4326C48.1082 51.6401 48.1725 51.8673 48.1909 52.1007C48.2093 52.334 48.1813 52.5687 48.1088 52.7909C47.9439 53.2408 47.6144 53.6081 47.1893 53.8159C46.7642 54.0237 46.2766 54.0558 45.8288 53.9054L32 49.3983L18.1688 53.9054C17.7214 54.057 17.2336 54.0254 16.8086 53.8175C16.3836 53.6095 16.0546 53.2414 15.8912 52.7909C15.8187 52.5687 15.7907 52.334 15.8091 52.1007C15.8275 51.8673 15.8918 51.6401 15.9981 51.4326C16.1045 51.2251 16.2508 51.0415 16.4282 50.8927C16.6057 50.7439 16.8108 50.633 17.0312 50.5666L30.2 46.2746V40.5038H22.4C15.6128 40.5038 12.2168 40.5038 10.1096 38.4409C8 36.3804 8 33.0636 8 26.4251V24.0787Z" fill="white"/>
</svg>
